<svg fill="none" height="219" viewBox="0 0 219 219" width="219" xmlns="http://www.w3.org/2000/svg"><path d="m114.819 3.04701c-.625-.93731-1.472-1.70583-2.465-2.237367-.994-.531535-2.103-.809643-3.229-.809643-1.127 0-2.236.278108-3.229.809643-.994.531537-1.84 1.300057-2.465 2.237367l-41.0627 61.59379c-.6858 1.0306-1.0793 2.2279-1.1384 3.4644-.0592 1.2365.2182 2.4659.8025 3.5573.5843 1.0913 1.4537 2.0038 2.5155 2.6401 1.0619.6363 2.2765.9727 3.5144.9734h1.3414l-27.6762 44.279c-.6474 1.036-1.0058 2.226-1.0379 3.448-.032 1.221.2634 2.428.8556 3.497.5922 1.068 1.4596 1.959 2.5122 2.579s2.252.947 3.4736.947h2.6143l-22.4201 44.84c-.5228 1.044-.7702 2.203-.7185 3.369s.4007 2.3 1.0138 3.293 1.4699 1.812 2.4891 2.381c1.0192.568 2.1669.867 3.3339.867h61.5938v34.219h27.3747v-34.219h61.594c1.167 0 2.315-.299 3.334-.867 1.019-.569 1.876-1.388 2.489-2.381s.962-2.127 1.014-3.293-.196-2.325-.719-3.369l-22.406-44.84h2.614c1.222 0 2.421-.327 3.474-.947 1.052-.62 1.92-1.511 2.512-2.579.592-1.069.888-2.276.856-3.497-.032-1.222-.391-2.412-1.038-3.448l-27.69-44.279h1.341c1.238-.0007 2.453-.3371 3.515-.9734s1.931-1.5488 2.515-2.6401c.584-1.0914.862-2.3208.803-3.5573s-.453-2.4338-1.139-3.4644z" fill="#003b49"/></svg>