<svg width="666" height="693" viewBox="0 0 666 693" fill="none" xmlns="http://www.w3.org/2000/svg">
<path fill-rule="evenodd" clip-rule="evenodd" d="M326.043 65.7837C386.074 76.8678 436.904 112.156 481.47 153.875C521.378 191.233 547.905 238.242 565.547 289.983C583.432 342.438 587.372 396.011 582.863 451.248C577.012 522.905 597.762 620.097 535.64 656.288C471.629 693.577 399.205 612.486 326.043 600.862C269.933 591.946 212.446 618.005 159.829 596.576C97.4575 571.175 19.8766 537.469 7.73363 471.227C-4.61131 403.883 85.0935 361.482 104.709 295.886C125.174 227.448 72.933 139.068 122.453 87.5856C170.955 37.1627 257.242 53.0803 326.043 65.7837Z" fill="#9F5DEE"/>
<path fill-rule="evenodd" clip-rule="evenodd" d="M326.043 0.112371C426.831 4.44117 456.115 135.356 513.364 218.419C562.274 289.382 641.757 351.568 626.773 436.442C611.297 524.097 524.654 575.102 443.815 612.357C365.146 648.611 278.572 665.382 197.782 634.14C108.077 599.451 19.9859 536.228 2.41998 441.667C-14.64 349.83 62.1788 276.752 117.397 201.412C177.502 119.404 224.462 -4.25052 326.043 0.112371Z" fill="#9F5DEE" fill-opacity="0.5"/>
<path fill-rule="evenodd" clip-rule="evenodd" d="M326.043 84.6055C389.596 81.7148 453.309 85.5881 509.738 114.968C573.028 147.92 641.672 190.283 660.961 258.981C680.102 327.151 630.934 392.48 606.297 458.862C582.909 521.881 572.67 593.142 520.99 636.124C467.717 680.431 395.254 695.249 326.043 691.947C259.048 688.751 197.957 658.197 144.158 618.146C90.9011 578.497 42.0383 529.875 22.9314 466.289C4.05848 403.482 17.2114 336.294 41.1131 275.223C63.9151 216.962 102.1 165.932 154.1 131.144C204.689 97.2996 265.24 87.371 326.043 84.6055Z" fill="#9F5DEE" fill-opacity="0.8"/>
</svg>
