<svg fill="none" height="25" viewBox="0 0 25 25" width="25" xmlns="http://www.w3.org/2000/svg"><path d="m21.4135 24.3846c.8205.8205 2.1507.8205 2.9712 0 .8204-.8205.8204-2.1507 0-2.9711l-8.9135-8.9135 8.9135-8.91345c.8204-.82046.8204-2.1507 0-2.97116-.8205-.820462-2.1507-.820462-2.9712 0l-8.9135 8.91345-8.91349-8.913493c-.82046-.820463-2.1507-.820462-2.97116 0-.820464.820463-.820465 2.150693 0 2.971153l8.91351 8.9135-8.913512 8.9135c-.820464.8205-.820464 2.1507 0 2.9712.820462.8204 2.150702.8204 2.971162 0l8.91349-8.9135z" fill="#003b49"/></svg>