<svg width="25" height="25" viewBox="0 0 25 25" fill="none" xmlns="http://www.w3.org/2000/svg">
<path d="M21.4135 24.3846C22.234 25.2051 23.5642 25.2051 24.3847 24.3846C25.2051 23.5641 25.2051 22.2339 24.3847 21.4135L15.4712 12.5L24.3847 3.58655C25.2051 2.76609 25.2051 1.43585 24.3847 0.61539C23.5642 -0.205072 22.234 -0.205072 21.4135 0.61539L12.5 9.52884L3.58651 0.615347C2.76605 -0.205116 1.43581 -0.205115 0.61535 0.615347C-0.205114 1.43581 -0.205115 2.76604 0.61535 3.5865L9.52886 12.5L0.615348 21.4135C-0.205116 22.234 -0.205116 23.5642 0.615348 24.3847C1.43581 25.2051 2.76605 25.2051 3.58651 24.3847L12.5 15.4712L21.4135 24.3846Z" fill="#E9FBFF"/>
</svg>
