<svg fill="none" height="1111" viewBox="0 0 1223 1111" width="1223" xmlns="http://www.w3.org/2000/svg"><g fill="#e9fbff"><circle cx="21" cy="143" r="9"/><circle cx="275" cy="36" r="12"/><circle cx="208" cy="268" r="7"/><circle cx="29" cy="546" r="12"/><circle cx="246" cy="916" r="7"/><circle cx="11" cy="878" r="11"/><circle cx="597.5" cy="843.5" r="6.5"/><circle cx="1217" cy="1105" r="6"/><circle cx="503" cy="1049" r="12"/><circle cx="768" cy="774" r="9"/><circle cx="380.5" cy="480.5" r="5.5"/><circle cx="899" cy="609" r="12"/><circle cx="528.5" cy="171.5" r="10.5"/><circle cx="975" cy="67" r="9"/><circle cx="1135.5" cy="144.5" r="7.5"/><circle cx="1211" cy="12" r="12"/><circle cx="986" cy="432" r="7"/><circle cx="1164" cy="359" r="12"/><circle cx="1205.5" cy="676.5" r="6.5"/><circle cx="807" cy="261" r="12"/></g></svg>