<svg fill="none" height="47" viewBox="0 0 47 47" width="47" xmlns="http://www.w3.org/2000/svg"><path d="m23.4997.675049c-12.6042 0-22.916692 10.289551-22.916692 22.962551 0 11.4583 8.387502 20.9687 19.341692 22.6874v-16.0416h-5.8209v-6.6458h5.8209v-5.0646c0-5.7521 3.4146-8.91462 8.6625-8.91462 2.4979 0 5.1104.43542 5.1104.43542v5.6604h-2.8875c-2.8417 0-3.7354 1.7646-3.7354 3.575v4.3084h6.3708l-1.0312 6.6458h-5.3396v16.0416c5.4002-.8528 10.3175-3.6081 13.8644-7.7686 3.5469-4.1604 5.4895-9.4517 5.4772-14.9188 0-12.673-10.3125-22.962551-22.9166-22.962551z" fill="#003b49"/></svg>