<svg fill="none" height="15" viewBox="0 0 23 15" width="23" xmlns="http://www.w3.org/2000/svg"><path clip-rule="evenodd" d="m1.49984 0c-.22102 0-.43298.0877975-.589258.244078-.156281.15628-.244078.368242-.244078.589255 0 .221017.087797.432977.244078.589257.156278.15628.368238.24408.589258.24408h19.99996c.2211 0 .433-.0878.5893-.24408s.2441-.36824.2441-.589257c0-.221013-.0878-.432975-.2441-.589255-.1563-.1562805-.3682-.244078-.5893-.244078zm-.833336 7.5c0-.22101.087797-.43298.244078-.58926.156278-.15628.368238-.24407.589258-.24407h19.99996c.2211 0 .433.08779.5893.24407s.2441.36825.2441.58926-.0878.43297-.2441.58926c-.1563.15628-.3682.24407-.5893.24407h-19.99996c-.22102 0-.43298-.08779-.589258-.24407-.156281-.15629-.244078-.36825-.244078-.58926zm0 6.6667c0-.221.087797-.433.244078-.5893.156278-.1563.368238-.2441.589258-.2441h19.99996c.2211 0 .433.0878.5893.2441s.2441.3683.2441.5893-.0878.4329-.2441.5892-.3682.2441-.5893.2441h-19.99996c-.22102 0-.43298-.0878-.589258-.2441-.156281-.1563-.244078-.3682-.244078-.5892z" fill="#e9fbff" fill-rule="evenodd"/></svg>