<svg fill="none" height="25" viewBox="0 0 25 25" width="25" xmlns="http://www.w3.org/2000/svg"><path clip-rule="evenodd" d="m2.49984 5c-.22102 0-.43298.0878-.58926.24408s-.24408.36824-.24408.58925c0 .22102.0878.43298.24408.58926s.36824.24408.58926.24408h19.99996c.2211 0 .433-.0878.5893-.24408s.2441-.36824.2441-.58926c0-.22101-.0878-.43297-.2441-.58925s-.3682-.24408-.5893-.24408zm-.83334 7.5c0-.221.0878-.433.24408-.5893.15628-.1562.36824-.244.58926-.244h19.99996c.2211 0 .433.0878.5893.244.1563.1563.2441.3683.2441.5893s-.0878.433-.2441.5893c-.1563.1562-.3682.244-.5893.244h-19.99996c-.22102 0-.43298-.0878-.58926-.244-.15628-.1563-.24408-.3683-.24408-.5893zm0 6.6667c0-.221.0878-.433.24408-.5893s.36824-.2441.58926-.2441h19.99996c.2211 0 .433.0878.5893.2441s.2441.3683.2441.5893-.0878.4329-.2441.5892-.3682.2441-.5893.2441h-19.99996c-.22102 0-.43298-.0878-.58926-.2441s-.24408-.3682-.24408-.5892z" fill="#003b49" fill-rule="evenodd"/></svg>