<svg fill="none" height="22" viewBox="0 0 23 22" width="23" xmlns="http://www.w3.org/2000/svg"><g fill="#e9fbff"><path clip-rule="evenodd" d="m7.83667 0h8.25003c3.7963 0 6.875 3.07863 6.875 6.875v8.25c0 3.7964-3.0787 6.875-6.875 6.875h-8.25003c-3.79638 0-6.875-3.0786-6.875-6.875v-8.25c0-3.79637 3.07862-6.875 6.875-6.875zm8.25003 19.9375c2.6537 0 4.8125-2.1588 4.8125-4.8125v-8.25c0-2.65375-2.1588-4.8125-4.8125-4.8125h-8.25003c-2.65375 0-4.8125 2.15875-4.8125 4.8125v8.25c0 2.6537 2.15875 4.8125 4.8125 4.8125z" fill-rule="evenodd"/><path clip-rule="evenodd" d="m6.46167 11c0-3.03738 2.46262-5.5 5.50003-5.5 3.0373 0 5.5 2.46262 5.5 5.5 0 3.0374-2.4627 5.5-5.5 5.5-3.03741 0-5.50003-2.4626-5.50003-5.5zm2.0625 0c0 1.8948 1.54273 3.4375 3.43753 3.4375 1.8947 0 3.4375-1.5427 3.4375-3.4375 0-1.89613-1.5428-3.4375-3.4375-3.4375-1.8948 0-3.43753 1.54137-3.43753 3.4375z" fill-rule="evenodd"/><circle cx="17.8741" cy="5.08749" r=".732875"/></g></svg>