<svg fill="none" height="47" viewBox="0 0 47 47" width="47" xmlns="http://www.w3.org/2000/svg"><path d="m13.8747.583374h19.25c7.3333 0 13.2916 5.958336 13.2916 13.291626v19.25c0 3.5252-1.4003 6.906-3.893 9.3987-2.4927 2.4926-5.8735 3.893-9.3986 3.893h-19.25c-7.33336 0-13.291692-5.9583-13.291692-13.2917v-19.25c0-3.5251 1.400372-6.90592 3.893042-9.39859s5.87345-3.893036 9.39865-3.893036zm-.4584 4.583336c-2.188 0-4.28641.86919-5.83359 2.41637-1.54717 1.54717-2.41637 3.64562-2.41637 5.83362v20.1667c0 4.5604 3.68958 8.25 8.24996 8.25h20.1667c2.188 0 4.2865-.8692 5.8336-2.4164 1.5472-1.5472 2.4164-3.6456 2.4164-5.8336v-20.1667c0-4.56041-3.6896-8.24999-8.25-8.24999zm22.1146 3.4375c.7598 0 1.4884.3018 2.0256.83901.5372.53722.839 1.26588.839 2.02558s-.3018 1.4883-.839 2.0256c-.5372.5372-1.2658.839-2.0256.839-.7597 0-1.4883-.3018-2.0255-.839-.5373-.5373-.8391-1.2659-.8391-2.0256s.3018-1.48836.8391-2.02558c.5372-.53721 1.2658-.83901 2.0255-.83901zm-12.0312 3.43749c3.0389 0 5.9534 1.2072 8.1022 3.3561 2.1489 2.1488 3.3561 5.0633 3.3561 8.1022 0 3.039-1.2072 5.9535-3.3561 8.1023-2.1488 2.1489-5.0633 3.3561-8.1022 3.3561-3.039 0-5.9534-1.2072-8.1023-3.3561-2.1488-2.1488-3.3561-5.0633-3.3561-8.1023 0-3.0389 1.2073-5.9534 3.3561-8.1022 2.1489-2.1489 5.0633-3.3561 8.1023-3.3561zm0 4.5833c-1.8234 0-3.5721.7244-4.8614 2.0137s-2.0136 3.038-2.0136 4.8613c0 1.8234.7243 3.5721 2.0136 4.8614s3.038 2.0136 4.8614 2.0136c1.8233 0 3.572-.7243 4.8613-2.0136s2.0137-3.038 2.0137-4.8614c0-1.8233-.7244-3.572-2.0137-4.8613s-3.038-2.0137-4.8613-2.0137z" fill="#003b49"/></svg>