<svg fill="none" height="22" viewBox="0 0 22 22" width="22" xmlns="http://www.w3.org/2000/svg"><g fill="#e9fbff"><path clip-rule="evenodd" d="m6.875 0h8.25c3.7964 0 6.875 3.07862 6.875 6.875v8.25c0 3.7964-3.0786 6.875-6.875 6.875h-8.25c-3.79638 0-6.875-3.0786-6.875-6.875v-8.25c0-3.79638 3.07862-6.875 6.875-6.875zm8.25 19.9375c2.6537 0 4.8125-2.1588 4.8125-4.8125v-8.25c0-2.65375-2.1588-4.8125-4.8125-4.8125h-8.25c-2.65375 0-4.8125 2.15875-4.8125 4.8125v8.25c0 2.6537 2.15875 4.8125 4.8125 4.8125z" fill-rule="evenodd"/><path clip-rule="evenodd" d="m5.5 11c0-3.03737 2.46263-5.5 5.5-5.5 3.0374 0 5.5 2.46263 5.5 5.5 0 3.0374-2.4626 5.5-5.5 5.5-3.03737 0-5.5-2.4626-5.5-5.5zm2.0625 0c0 1.8948 1.54275 3.4375 3.4375 3.4375 1.8948 0 3.4375-1.5427 3.4375-3.4375 0-1.89612-1.5427-3.4375-3.4375-3.4375-1.89475 0-3.4375 1.54138-3.4375 3.4375z" fill-rule="evenodd"/><circle cx="16.9124" cy="5.08737" r=".732875"/></g></svg>