<svg viewBox="0 0 1440 560" xmlns="http://www.w3.org/2000/svg" xmlns:xlink="http://www.w3.org/1999/xlink"><linearGradient id="a" gradientUnits="userSpaceOnUse" x1="336.25" x2="80.01" y1="266.75" y2="266.75"><stop offset="0" stop-color="#ffa3f0"/><stop offset="1" stop-color="#9f5dee"/></linearGradient><linearGradient id="b" x1="205.75" x2="80.2" xlink:href="#a" y1="301.59" y2="301.59"/><rect fill="#003b49" height="560" rx="116.04" width="1440"/><path d="m422.38 250.19a169.53 169.53 0 0 1 -49.85 120.35c-.52.52-1 1-1.56 1.54l-.11.1-7.52 6.91-.14.1-106.93 98.07c-6.38 5.84-17.27 1.74-17.27-6.56v-50.7a168.62 168.62 0 0 1 -65.26-17.74l-.43-.21a170.34 170.34 0 0 1 -55.52-44.95c-.46-.56-.9-1.12-1.35-1.69a169.23 169.23 0 0 1 -35.44-86.8q-.52-5.13-.77-10.37c-.13-2.66-.19-5.35-.19-8.05a169.32 169.32 0 0 1 10.68-59.45c.18-.49.36-1 .55-1.46a170.29 170.29 0 0 1 158.93-109.28h2a170.18 170.18 0 0 1 170.18 170.19z" fill="#00a9ce"/><rect fill="#ffca28" height="39.74" rx="19.87" transform="matrix(-.64838569 .76131202 -.76131202 -.64838569 744.62 156.15)" width="66.23" x="303.13" y="230.17"/><rect fill="#ffeb3b" height="39.74" rx="19.87" transform="matrix(-.76131202 -.64838569 .64838569 -.76131202 439.71 624.56)" width="66.23" x="301.68" y="211.49"/><path d="m336.25 243.49a112.31 112.31 0 0 1 -56.2 97.41l-106.31 61.38-.43-.21a170.34 170.34 0 0 1 -55.52-44.95c-.46-.56-.9-1.12-1.35-1.69a169.23 169.23 0 0 1 -35.44-86.82q-.52-5.13-.77-10.37c-.13-2.66-.19-5.35-.19-8.05a169.32 169.32 0 0 1 10.68-59.45l77-44.45a112.38 112.38 0 0 1 168.56 97.2z" fill="url(#a)"/><rect fill="#003b49" height="33.99" rx="16.99" transform="matrix(.34202014 .93969262 -.93969262 .34202014 385.75 -110.91)" width="47.26" x="248.44" y="203.01"/><path d="m205.75 298.07a52 52 0 0 1 -42.94 51.11l-45 7.94c-.46-.56-.9-1.12-1.35-1.69a169.23 169.23 0 0 1 -35.46-86.82q-.52-5.13-.77-10.37l64.57-11.39a52 52 0 0 1 61 51.22z" fill="url(#b)"/><g fill="#e9fbff"><path d="m503 128.85a7.38 7.38 0 0 1 1.88-5.06 6.7 6.7 0 0 1 5.31-2.13h33.15a7.82 7.82 0 0 1 2.53.49 8.11 8.11 0 0 1 2.54 1.47 10.28 10.28 0 0 1 2 2.29 5.46 5.46 0 0 1 .81 2.94v97l91.63-99.14q3.27-5.07 7.19-5.07h46.71c2.94 0 4.41.66 4.41 2 0 .88-.65 2-2 3.43l-86.24 100.43 100.62 130.18q2.46 3.32 2.46 4.74c0 1.2-1.15 1.79-3.43 1.79h-49.67q-3.92 0-7.18-5.06l-76.72-97.84-27.77 28.75v67q0 7.19-7.84 7.18h-33.2q-7.2 0-7.19-7.18z"/><path d="m744.24 94.42q0-9.83 9.64-9.83h27.44a10.71 10.71 0 0 1 7.35 2.46q2.77 2.46 2.77 7.37v24.43a11.44 11.44 0 0 1 -2.61 7.13 8.77 8.77 0 0 1 -7.35 3.36h-27.48q-9.79 0-9.8-10.49zm0 72.32a10.53 10.53 0 0 1 2.45-7.1q2.44-2.87 7.19-2.86h27.12a10.43 10.43 0 0 1 7 2.86 12.68 12.68 0 0 1 2.45 3.18 8 8 0 0 1 1 3.92v187.67q0 9.81-10.29 9.8h-27.16q-9.79 0-9.8-9.8z"/><path d="m828.19 170c-.22-.87-.41-1.63-.57-2.29s-.3-1.36-.41-2.12a13.85 13.85 0 0 1 -.16-2 6.21 6.21 0 0 1 2.2-5q2.21-1.87 6.62-1.88h29.4q7.68 0 10.29 7.51 2.94 8.51 7.1 20.09t8.82 24.5q4.66 12.92 9.56 26.05t9.23 24.83q4.32 11.69 7.84 20.91t5.47 14q7.35-20.73 18.78-53.08t27.93-77.42a10 10 0 0 1 10.46-7.35h28.42c3.37 0 5.68.55 6.94 1.63a5.38 5.38 0 0 1 1.88 4.25 16.83 16.83 0 0 1 -.41 3.27c-.28 1.3-.52 2.28-.74 2.94l-17 41.32q3.25 8.17 7.59 18.21t9.15 21.07q4.81 11 9.63 22.46t9.07 22.21q2.94-7.83 6.94-18.13t8.33-21.88q4.32-11.59 9-23.85t9.15-24.09q4.48-11.85 8.58-22.62t7.34-19.44a12.28 12.28 0 0 1 3.76-5.64 9.85 9.85 0 0 1 6-1.71h27.12c3.15 0 5.55.46 7.18 1.39s2.45 2.53 2.45 4.82a19.6 19.6 0 0 1 -.32 3.1 15 15 0 0 1 -.66 2.78l-77.05 188.84c-.43.76-.9 1.53-1.39 2.29a8.81 8.81 0 0 1 -2 2.12 9.19 9.19 0 0 1 -3.1 1.55 15.57 15.57 0 0 1 -4.49.57h-14.05c-3.81 0-6.42-.7-7.84-2.12a19.4 19.4 0 0 1 -3.43-4.57q-9.63-23.36-19.11-46.31t-18.94-46.3l-37.57 92.77a26.17 26.17 0 0 1 -3.19 4.41c-1.25 1.42-3.56 2.12-6.94 2.12h-15c-3.92 0-6.57-.68-7.93-2a13.47 13.47 0 0 1 -3-4.49z"/><path d="m1329.13 341.35a116.72 116.72 0 0 1 -31.44 19.27 97.66 97.66 0 0 1 -37.49 7 106.4 106.4 0 0 1 -41.81-8.33 109.38 109.38 0 0 1 -58.23-56.92 101.82 101.82 0 0 1 -8.74-42.06 109.61 109.61 0 0 1 13.81-53.49 106.25 106.25 0 0 1 16.08-21.72 101.88 101.88 0 0 1 46.47-27.77 105.88 105.88 0 0 1 28.83-3.84 100.91 100.91 0 0 1 24.5 3 107.73 107.73 0 0 1 43.28 22.05 98 98 0 0 1 16.66 17.89 96.62 96.62 0 0 1 14.38 29.57 126.78 126.78 0 0 1 4.57 35.12 64.28 64.28 0 0 1 -.41 7.92 9.81 9.81 0 0 1 -2 5.15 9.38 9.38 0 0 1 -4.9 2.85 36.18 36.18 0 0 1 -9.15.9h-144.91a55.38 55.38 0 0 0 8.08 20.83 62.58 62.58 0 0 0 14.13 15.35 59.66 59.66 0 0 0 17.8 9.47 61 61 0 0 0 19.28 3.19 66.52 66.52 0 0 0 14.13-1.47 73.61 73.61 0 0 0 12.65-3.92 70 70 0 0 0 10.87-5.64 63.42 63.42 0 0 0 8.73-6.61c0-.11.06-.16.17-.16a22.52 22.52 0 0 1 3.75-2.86 6.7 6.7 0 0 1 7.11-.08 11.8 11.8 0 0 1 3.67 3.26q4.41 5.4 7.52 9c2.06 2.39 3.75 4.41 5.06 6a24.83 24.83 0 0 1 2.86 4.25 8 8 0 0 1 .9 3.59q0 4.64-6.21 9.21zm-72.52-147.35a51.94 51.94 0 0 0 -18.78 3.51 62.83 62.83 0 0 0 -16.74 9.56 65.34 65.34 0 0 0 -13.23 14.21 57.8 57.8 0 0 0 -8.25 17.64h115.64a63.42 63.42 0 0 0 -7.92-18.22 58.26 58.26 0 0 0 -12.83-14.2 56.41 56.41 0 0 0 -17.15-9.23 64.12 64.12 0 0 0 -20.74-3.27z"/><path d="m507.82 474.55h-4.82l18.33-50.4h4.92l18.34 50.4h-4.83l-15.76-44.42h-.35zm3.47-19.32h25v4.14h-25z"/><path d="m594.46 439.9a18.89 18.89 0 0 0 -2-4.71 15.43 15.43 0 0 0 -3.29-3.86 14.65 14.65 0 0 0 -4.5-2.6 16.45 16.45 0 0 0 -5.67-.93 15.68 15.68 0 0 0 -8.81 2.55 17.31 17.31 0 0 0 -6.14 7.39 30.84 30.84 0 0 0 0 23.2 17.4 17.4 0 0 0 6.21 7.4 16.27 16.27 0 0 0 9 2.57 16 16 0 0 0 8.21-2.07 14.32 14.32 0 0 0 5.58-5.9 19.1 19.1 0 0 0 1.95-9.13l1.48.46h-16.09v-4.13h19.14v4.13a22.61 22.61 0 0 1 -2.61 11.15 18.26 18.26 0 0 1 -7.16 7.26 22.55 22.55 0 0 1 -22-.63 21.14 21.14 0 0 1 -7.69-9 31.84 31.84 0 0 1 -2.74-13.7 34 34 0 0 1 1.58-10.7 23.84 23.84 0 0 1 4.46-8.17 19.57 19.57 0 0 1 6.86-5.21 22.27 22.27 0 0 1 16.32-.5 19.84 19.84 0 0 1 10.36 8.82 19.59 19.59 0 0 1 2.28 6.31z"/><path d="m619.71 474.55v-50.4h29.23v4.14h-24.63v19h23.08v4.14h-23.08v19h25.12v4.13z"/><path d="m708.81 424.15v50.4h-4.48l-29.78-42.2h-.39v42.2h-4.6v-50.4h4.44l29.88 42.26h.39v-42.26z"/><path d="m770.4 439.9h-4.63a14.43 14.43 0 0 0 -1.86-4.78 14.71 14.71 0 0 0 -3.36-3.85 15.05 15.05 0 0 0 -4.57-2.56 16.34 16.34 0 0 0 -5.54-.91 15.92 15.92 0 0 0 -8.7 2.48 17.33 17.33 0 0 0 -6.27 7.3 30.75 30.75 0 0 0 0 23.58 17.27 17.27 0 0 0 6.27 7.28 16.08 16.08 0 0 0 8.7 2.47 16.34 16.34 0 0 0 5.56-.91 15.46 15.46 0 0 0 4.57-2.55 14.82 14.82 0 0 0 5.22-8.65h4.63a20.25 20.25 0 0 1 -2.3 6.46 19.48 19.48 0 0 1 -10.27 8.74 21.26 21.26 0 0 1 -7.41 1.25 20.24 20.24 0 0 1 -11.27-3.19 21.58 21.58 0 0 1 -7.72-9 35.06 35.06 0 0 1 0-27.41 21.61 21.61 0 0 1 7.72-9 20.32 20.32 0 0 1 11.27-3.19 21.26 21.26 0 0 1 7.41 1.25 19.06 19.06 0 0 1 6 3.49 19.8 19.8 0 0 1 4.29 5.23 20.22 20.22 0 0 1 2.26 6.47z"/><path d="m790 474.55v-50.4h29.23v4.14h-24.67v19h23.08v4.14h-23.08v19h25.12v4.13z"/><path d="m868 424.15h5.31l18.29 43.9h.44l18.28-43.9h5.32v50.4h-4.33v-40.68h-.31l-17 40.68h-4.18l-17-40.68h-.39v40.68h-4.43z"/><path d="m971.38 424.15h4.62v33.37a17.56 17.56 0 0 1 -2.41 9.19 17.11 17.11 0 0 1 -6.71 6.38 22.5 22.5 0 0 1 -19.94 0 17.18 17.18 0 0 1 -6.72-6.37 17.52 17.52 0 0 1 -2.41-9.18v-33.39h4.6v33.05a14.09 14.09 0 0 0 1.8 7.15 12.84 12.84 0 0 0 5 4.94 17.24 17.24 0 0 0 15.3 0 12.77 12.77 0 0 0 5.05-4.94 14.19 14.19 0 0 0 1.79-7.15z"/><path d="m998.1 474.55v-50.4h4.6v46.27h24v4.13z"/><path d="m1036.06 428.29v-4.14h36.55v4.14h-16v46.26h-4.61v-46.26z"/><path d="m1096.27 424.15v50.4h-4.6v-50.4z"/><path d="m1118.39 424.15h5.32l18.28 43.9h.44l18.29-43.9h5.28v50.4h-4.33v-40.68h-.39l-17 40.68h-4.18l-17-40.68h-.4v40.68h-4.33z"/><path d="m1188.15 474.55v-50.4h29.24v4.14h-24.64v19h23.09v4.14h-23.09v19h25.13v4.13zm12.58-55.64 6.3-11.17h5.19l-7.56 11.17z"/><path d="m1252.77 474.55h-14.77v-50.4h15.65a23.93 23.93 0 0 1 12.34 3 19.7 19.7 0 0 1 7.87 8.61 34.49 34.49 0 0 1 -.07 27.06 19.7 19.7 0 0 1 -8.12 8.69 25.7 25.7 0 0 1 -12.9 3.04zm-10.17-4.13h9.9a21.3 21.3 0 0 0 10.87-2.56 16 16 0 0 0 6.57-7.31 26.86 26.86 0 0 0 2.19-11.32 27.15 27.15 0 0 0 -2.13-11.23 15.76 15.76 0 0 0 -6.3-7.21 19.58 19.58 0 0 0 -10.3-2.51h-10.8z"/><path d="m1301 424.15v50.4h-4.6v-50.4z"/><path d="m1323.24 474.55h-4.83l18.34-50.4h4.92l18.33 50.4h-4.82l-15.8-44.42h-.38zm3.47-19.32h25v4.14h-25z"/></g></svg>