<svg viewBox="0 0 1018 1018" xmlns="http://www.w3.org/2000/svg" xmlns:xlink="http://www.w3.org/1999/xlink"><linearGradient id="a" gradientUnits="userSpaceOnUse" x1="672.31" x2="180.32" y1="539.56" y2="539.56"><stop offset="0" stop-color="#ffa3f0"/><stop offset="1" stop-color="#9f5dee"/></linearGradient><linearGradient id="b" x1="421.74" x2="180.69" xlink:href="#a" y1="606.45" y2="606.45"/><path d="m837.68 507.77a325.47 325.47 0 0 1 -95.68 231.07c-1 1-1.93 2-3 3l-.21.19-14.44 13.27a2.41 2.41 0 0 0 -.27.19l-205.34 188.25c-12.25 11.22-33.15 3.31-33.15-12.59v-97.31a323.68 323.68 0 0 1 -125.3-34.06l-.83-.4a327.1 327.1 0 0 1 -106.6-86.31c-.88-1.07-1.73-2.15-2.59-3.24a324.84 324.84 0 0 1 -68.1-166.7c-.68-6.56-1.18-13.21-1.48-19.91-.25-5.1-.37-10.27-.37-15.45a325 325 0 0 1 20.51-114.15c.34-.94.69-1.88 1-2.8a327 327 0 0 1 305.26-209.82h3.8c180.5 0 326.79 146.29 326.79 326.77z" fill="#00a9ce"/><rect fill="#ffca28" height="76.3" rx="38.15" transform="matrix(-.64838569 .76131202 -.76131202 -.64838569 1494.56 324.63)" width="127.17" x="608.72" y="469.34"/><rect fill="#ffeb3b" height="76.3" rx="38.15" transform="matrix(-.76131202 -.64838569 .64838569 -.76131202 873.52 1264.74)" width="127.17" x="605.93" y="433.46"/><path d="m672.31 494.9a215.62 215.62 0 0 1 -107.91 187l-204.11 117.88-.83-.4a327.1 327.1 0 0 1 -106.6-86.31c-.88-1.07-1.73-2.15-2.59-3.24a324.84 324.84 0 0 1 -68.1-166.7c-.68-6.56-1.18-13.21-1.48-19.91-.25-5.1-.37-10.27-.37-15.45a325 325 0 0 1 20.51-114.15l147.84-85.34c103.18-59.58 235.12-24.23 294.7 79a214.7 214.7 0 0 1 28.94 107.62z" fill="url(#a)"/><rect fill="#003b49" height="65.26" rx="32.63" transform="matrix(.34202014 .93969262 -.93969262 .34202014 783.96 -220.01)" width="90.75" x="503.71" y="417.17"/><path d="m421.74 599.7a99.79 99.79 0 0 1 -82.44 98.13l-86.44 15.24c-.88-1.07-1.73-2.15-2.59-3.24a324.84 324.84 0 0 1 -68.1-166.7c-.68-6.56-1.18-13.21-1.48-19.91l124-21.87a99.82 99.82 0 0 1 117.05 98.35z" fill="url(#b)"/></svg>