<svg viewBox="0 0 1440 560" xmlns="http://www.w3.org/2000/svg" xmlns:xlink="http://www.w3.org/1999/xlink"><linearGradient id="a" gradientUnits="userSpaceOnUse" x1="336.25" x2="80.01" y1="266.75" y2="266.75"><stop offset="0" stop-color="#ffa3f0"/><stop offset="1" stop-color="#9f5dee"/></linearGradient><linearGradient id="b" x1="205.75" x2="80.2" xlink:href="#a" y1="301.59" y2="301.59"/><path d="m422.38 250.19a169.53 169.53 0 0 1 -49.85 120.35c-.52.52-1 1-1.56 1.54l-.11.1-7.52 6.91-.14.1-106.93 98.07c-6.38 5.84-17.27 1.74-17.27-6.56v-50.7a168.62 168.62 0 0 1 -65.26-17.74l-.43-.21a170.34 170.34 0 0 1 -55.52-44.95c-.46-.56-.9-1.12-1.35-1.69a169.23 169.23 0 0 1 -35.44-86.8q-.52-5.13-.77-10.37c-.13-2.66-.19-5.35-.19-8.05a169.32 169.32 0 0 1 10.68-59.45c.18-.49.36-1 .55-1.46a170.29 170.29 0 0 1 158.93-109.28h2a170.18 170.18 0 0 1 170.18 170.19z" fill="#00a9ce"/><rect fill="#ffca28" height="39.74" rx="19.87" transform="matrix(-.64838569 .76131202 -.76131202 -.64838569 744.62 156.15)" width="66.23" x="303.13" y="230.17"/><rect fill="#ffeb3b" height="39.74" rx="19.87" transform="matrix(-.76131202 -.64838569 .64838569 -.76131202 439.71 624.56)" width="66.23" x="301.68" y="211.49"/><path d="m336.25 243.49a112.31 112.31 0 0 1 -56.2 97.41l-106.31 61.38-.43-.21a170.34 170.34 0 0 1 -55.52-44.95c-.46-.56-.9-1.12-1.35-1.69a169.23 169.23 0 0 1 -35.44-86.82q-.52-5.13-.77-10.37c-.13-2.66-.19-5.35-.19-8.05a169.32 169.32 0 0 1 10.68-59.45l77-44.45a112.38 112.38 0 0 1 168.56 97.2z" fill="url(#a)"/><rect fill="#003b49" height="33.99" rx="16.99" transform="matrix(.34202014 .93969262 -.93969262 .34202014 385.75 -110.91)" width="47.26" x="248.44" y="203.01"/><path d="m205.75 298.07a52 52 0 0 1 -42.94 51.11l-45 7.94c-.46-.56-.9-1.12-1.35-1.69a169.23 169.23 0 0 1 -35.46-86.82q-.52-5.13-.77-10.37l64.57-11.39a52 52 0 0 1 61 51.22z" fill="url(#b)"/><g fill="#003b49"><path d="m503 182.74a7.42 7.42 0 0 1 1.88-5.07 6.73 6.73 0 0 1 5.31-2.12h33.15a7.57 7.57 0 0 1 2.53.49 8.11 8.11 0 0 1 2.54 1.47 9.86 9.86 0 0 1 2 2.29 5.46 5.46 0 0 1 .81 2.94v97l91.63-99.14q3.27-5.06 7.19-5.06h46.71q4.41 0 4.41 2c0 .87-.65 2-2 3.43l-86.24 100.42 100.62 130.17q2.44 3.27 2.45 4.74c0 1.2-1.15 1.8-3.43 1.8h-49.66q-3.92 0-7.18-5.07l-76.72-97.83-27.77 28.74v67q0 7.18-7.84 7.19h-33.2q-7.2 0-7.19-7.19z"/><path d="m744.24 148.31q0-9.84 9.64-9.84h27.44a10.71 10.71 0 0 1 7.35 2.46q2.77 2.46 2.77 7.38v24.42a11.42 11.42 0 0 1 -2.61 7.13 8.78 8.78 0 0 1 -7.35 3.37h-27.48q-9.79 0-9.8-10.5zm0 72.32a10.58 10.58 0 0 1 2.45-7.11q2.44-2.85 7.19-2.85h27.12a10.08 10.08 0 0 1 3.68.73 10.37 10.37 0 0 1 3.34 2.12 12.73 12.73 0 0 1 2.45 3.19 8 8 0 0 1 1 3.92v187.67q0 9.79-10.29 9.8h-27.18q-9.79 0-9.8-9.8z"/><path d="m828.19 223.9-.57-2.29c-.16-.65-.3-1.36-.41-2.12a14.08 14.08 0 0 1 -.16-2 6.24 6.24 0 0 1 2.2-5q2.21-1.87 6.62-1.87h29.4q7.68 0 10.29 7.51 2.94 8.49 7.1 20.09t8.82 24.5q4.66 12.9 9.56 26.05t9.23 24.83q4.32 11.67 7.84 20.9t5.47 14q7.35-20.75 18.78-53.08t27.93-77.42a10 10 0 0 1 10.46-7.35h28.42q5.05 0 6.94 1.63a5.37 5.37 0 0 1 1.88 4.25 16.65 16.65 0 0 1 -.41 3.26 29 29 0 0 1 -.74 2.94l-17 41.32q3.25 8.18 7.59 18.22t9.15 21.07q4.81 11 9.63 22.45t9.09 22.21q2.94-7.84 6.94-18.13t8.33-21.89q4.32-11.6 9-23.85t9.15-24.09l8.58-22.62q4.08-10.77 7.34-19.43a12.17 12.17 0 0 1 3.76-5.64 9.85 9.85 0 0 1 6-1.71h27.12c3.15 0 5.55.46 7.18 1.38s2.45 2.54 2.45 4.82a19.7 19.7 0 0 1 -.32 3.11 14.8 14.8 0 0 1 -.66 2.77l-77.07 188.84c-.43.77-.9 1.53-1.39 2.29a8.81 8.81 0 0 1 -2 2.12 9 9 0 0 1 -3.1 1.56 15.57 15.57 0 0 1 -4.49.57h-14.05q-5.71 0-7.84-2.13a19.4 19.4 0 0 1 -3.43-4.57q-9.63-23.36-19.11-46.3t-18.94-46.31l-37.57 92.77a26.17 26.17 0 0 1 -3.18 4.44q-1.87 2.13-6.94 2.13h-15c-3.92 0-6.57-.68-7.93-2a13.41 13.41 0 0 1 -3-4.5z"/><path d="m1329.13 395.23a116.47 116.47 0 0 1 -31.44 19.27 97.66 97.66 0 0 1 -37.49 7 106.58 106.58 0 0 1 -41.81-8.33 109.48 109.48 0 0 1 -58.23-56.92 101.85 101.85 0 0 1 -8.74-42.06 109.54 109.54 0 0 1 13.81-53.49 106 106 0 0 1 16.08-21.7 102 102 0 0 1 46.47-27.76 105.88 105.88 0 0 1 28.83-3.84 100.91 100.91 0 0 1 24.5 3 107.35 107.35 0 0 1 23 8.58 108.63 108.63 0 0 1 20.33 13.47 97.66 97.66 0 0 1 16.66 17.88 96.67 96.67 0 0 1 14.38 29.57 126.71 126.71 0 0 1 4.52 35.1 64.57 64.57 0 0 1 -.41 7.93 9.77 9.77 0 0 1 -2 5.14 9.39 9.39 0 0 1 -4.9 2.86 36.18 36.18 0 0 1 -9.15.9h-144.91a55.26 55.26 0 0 0 8.08 20.82 62.45 62.45 0 0 0 14.13 15.35 59.66 59.66 0 0 0 17.8 9.47 61.23 61.23 0 0 0 19.28 3.18 66.52 66.52 0 0 0 14.13-1.47 72.74 72.74 0 0 0 12.65-3.92 70.82 70.82 0 0 0 10.87-5.63 63.45 63.45 0 0 0 8.73-6.62.15.15 0 0 1 .17-.16 22.52 22.52 0 0 1 3.75-2.86 7.36 7.36 0 0 1 3.78-.99 7.45 7.45 0 0 1 3.35 1 11.72 11.72 0 0 1 3.67 3.27q4.41 5.38 7.52 9t5.06 6a25.22 25.22 0 0 1 2.86 4.25 8 8 0 0 1 .9 3.59q-.02 4.55-6.23 9.12zm-72.52-147.32a51.94 51.94 0 0 0 -18.78 3.51 62.8 62.8 0 0 0 -16.74 9.55 65.57 65.57 0 0 0 -13.23 14.21 58 58 0 0 0 -8.25 17.64h115.64a63.36 63.36 0 0 0 -7.92-18.21 58.31 58.31 0 0 0 -12.83-14.21 56.62 56.62 0 0 0 -17.15-9.23 64.12 64.12 0 0 0 -20.74-3.26z"/></g></svg>