<svg viewBox="0 0 1440 560" xmlns="http://www.w3.org/2000/svg"><g fill="#003b49"><path d="m114.47 142.55a10.42 10.42 0 0 1 2.65-7.15 9.49 9.49 0 0 1 7.5-3h46.86a10.87 10.87 0 0 1 3.57.7 11.2 11.2 0 0 1 3.58 2.07 14.15 14.15 0 0 1 2.77 3.24 7.65 7.65 0 0 1 1.16 4.15v137.1l129.44-140.11q4.62-7.16 10.16-7.16h66c4.16 0 6.23.93 6.23 2.77 0 1.24-.92 2.85-2.77 4.85l-121.82 141.99 142.2 183.92q3.47 4.62 3.47 6.69c0 1.7-1.62 2.54-4.85 2.54h-70.19q-5.54 0-10.15-7.15l-108.49-138.26-39.23 40.62v94.64q0 10.15-11.08 10.15h-46.86q-10.16 0-10.15-10.15z"/><path d="m455.38 93.9q0-13.9 13.62-13.9h38.78q6.47 0 10.39 3.48t3.92 10.42v34.52a16.13 16.13 0 0 1 -3.69 10.07q-3.71 4.75-10.39 4.75h-38.79q-13.85 0-13.84-14.82zm0 102.2a14.87 14.87 0 0 1 3.46-10q3.46-4 10.15-4h38.32a14.24 14.24 0 0 1 5.19 1 14.41 14.41 0 0 1 4.73 3 18.16 18.16 0 0 1 3.47 4.5 11.41 11.41 0 0 1 1.38 5.54v265.16q0 13.86-14.54 13.85h-38.32q-13.85 0-13.84-13.85z"/><path d="m574 200.72q-.46-1.84-.81-3.24a28.64 28.64 0 0 1 -.57-3 18.91 18.91 0 0 1 -.23-2.77 8.78 8.78 0 0 1 3.11-7c2.08-1.76 5.2-2.65 9.35-2.65h41.55q10.85 0 14.54 10.62 4.15 12 10 28.39t12.46 34.62q6.6 18.2 13.6 36.77t13 35.09q6.11 16.5 11.07 29.54t7.74 19.74q10.38-29.31 26.54-75t39.47-109.4q2.07-5.55 5.65-8a16 16 0 0 1 9.12-2.42h40.16q7.15 0 9.81 2.31a7.58 7.58 0 0 1 2.66 6 23.71 23.71 0 0 1 -.58 4.61 40.38 40.38 0 0 1 -1 4.16l-24 58.4q4.6 11.53 10.73 25.73t12.88 29.78q6.81 15.57 13.62 31.73t12.81 31.39q4.16-11.07 9.81-25.62t11.77-30.93q6.12-16.38 12.7-33.69t12.92-34l12.12-32q5.78-15.23 10.39-27.46 2.07-5.55 5.31-8a13.91 13.91 0 0 1 8.54-2.42h38.31q6.69 0 10.16 2t3.46 6.81a28 28 0 0 1 -.46 4.39 22.2 22.2 0 0 1 -.92 3.92l-108.95 266.8c-.62 1.08-1.27 2.16-2 3.23a12.51 12.51 0 0 1 -2.77 3 12.9 12.9 0 0 1 -4.39 2.19 21.52 21.52 0 0 1 -6.34.81h-19.81q-8.09 0-11.08-3a27.26 27.26 0 0 1 -4.85-6.46l-27-65.44q-13.4-32.42-26.78-65.43l-53.09 131.1a37.13 37.13 0 0 1 -4.5 6.23q-2.65 3-9.81 3h-21.23q-8.31 0-11.2-2.88a19 19 0 0 1 -4.27-6.35z"/><path d="m1281.91 442.84a164.7 164.7 0 0 1 -44.43 27.23q-24.12 9.93-53 9.93a150.52 150.52 0 0 1 -59.09-11.77 154.79 154.79 0 0 1 -82.29-80.44 143.8 143.8 0 0 1 -12.34-59.43 154.66 154.66 0 0 1 19.5-75.6 149.57 149.57 0 0 1 22.74-30.69 143.95 143.95 0 0 1 65.66-39.24 149.58 149.58 0 0 1 40.74-5.43 142.58 142.58 0 0 1 34.62 4.27 152.09 152.09 0 0 1 32.43 12.12 154.21 154.21 0 0 1 28.74 19 138.55 138.55 0 0 1 23.54 25.28 136.68 136.68 0 0 1 20.31 41.77q6.47 22.39 6.46 49.63a91.45 91.45 0 0 1 -.57 11.19 13.86 13.86 0 0 1 -2.89 7.27 13.26 13.26 0 0 1 -6.92 4 51 51 0 0 1 -12.93 1.27h-204.7a78.13 78.13 0 0 0 11.43 29.43 88.29 88.29 0 0 0 20 21.7 84.64 84.64 0 0 0 25.08 13.47 86.38 86.38 0 0 0 27.24 4.5 94.29 94.29 0 0 0 20-2.08 103.6 103.6 0 0 0 17.89-5.54 99.89 99.89 0 0 0 15.35-8 91.18 91.18 0 0 0 12.35-9.35.2.2 0 0 1 .23-.23 31.93 31.93 0 0 1 5.31-4 10.28 10.28 0 0 1 5.31-1.5 10.51 10.51 0 0 1 4.73 1.38 16.87 16.87 0 0 1 5.19 4.62q6.24 7.62 10.62 12.69t7.15 8.54a34.77 34.77 0 0 1 4 6 11.19 11.19 0 0 1 1.27 5.07q.04 6.48-8.73 12.94zm-102.48-208.19a73.38 73.38 0 0 0 -26.54 5 89 89 0 0 0 -23.66 13.5 92.88 92.88 0 0 0 -18.7 20.08 82 82 0 0 0 -11.65 24.93h163.41a88.8 88.8 0 0 0 -11.19-25.74 82.46 82.46 0 0 0 -18.1-20.12 80.1 80.1 0 0 0 -24.24-13 90.66 90.66 0 0 0 -29.33-4.65z"/></g></svg>