<svg fill="none" height="83" viewBox="0 0 170 83" width="170" xmlns="http://www.w3.org/2000/svg" xmlns:xlink="http://www.w3.org/1999/xlink"><clipPath id="a"><path d="m0 0h170v83h-170z"/></clipPath><g clip-path="url(#a)"><g fill="#e9fbff"><path d="m8.36536 9.43991c3.45914-5.81945 8.71864-8.729355 15.77674-8.729355 3.4595 0 6.6591.918955 9.6012 2.753705 2.9404 1.83651 5.2416 4.41651 6.9021 7.74174 2.3517-4.36465 6.02-7.48188 11.0025-9.35271 2.006-.76136 4.2716-1.143085 6.7986-1.143085 2.5251 0 4.9464.503605 7.2655 1.506955 2.3174 1.00511 4.3756 2.44202 6.1756 4.3125 3.8747 4.15664 5.8126 9.35234 5.8126 15.58794v31.3831h-7.7847v-31.1758c0-4.2947-1.2113-7.8279-3.633-10.5999-2.423-2.63214-5.5012-3.94859-9.2377-3.94859-3.9439 0-7.2316 1.28282-9.8603 3.84499-2.7683 2.6339-4.1517 6.2355-4.1517 10.8075v31.0718h-7.7847v-31.1758c0-4.2947-1.2113-7.8279-3.6326-10.5999-2.423-2.63214-5.5012-3.94859-9.2377-3.94859-3.9443 0-7.2317 1.28282-9.8604 3.84499-2.7686 2.6339-4.15169 6.2355-4.15169 10.8075v31.0718h-7.785022v-51.95874h7.784672z"/><path d="m89.1175 9.43991c3.4591-5.81945 8.7186-8.729355 15.7765-8.729355 3.46 0 6.659.918955 9.601 2.753705 2.941 1.83651 5.242 4.41651 6.903 7.74174 2.351-4.36465 6.019-7.48188 11.002-9.35271 2.006-.76136 4.272-1.143085 6.799-1.143085 2.525 0 4.946.503605 7.265 1.506955 2.318 1.00511 4.376 2.44202 6.176 4.3125 3.874 4.15664 5.812 9.35234 5.812 15.58794v31.3831h-7.784v-31.1758c0-4.2947-1.212-7.8279-3.633-10.5999-2.423-2.63214-5.502-3.94859-9.238-3.94859-3.944 0-7.232 1.28282-9.86 3.84499-2.769 2.6339-4.152 6.2355-4.152 10.8075v31.0718h-7.785v-31.1758c0-4.2947-1.211-7.8279-3.632-10.5999-2.423-2.63214-5.502-3.94859-9.238-3.94859-3.9444 0-7.2318 1.28282-9.8605 3.84499-2.7686 2.6339-4.1517 6.2355-4.1517 10.8075v31.0718h-7.7847v-51.95874h7.7847v7.89795z"/><path d="m162.085 1.54199h7.785v51.95901h-7.785z"/><path d="m4.68001 81.3694h.02414l1.89029-4.8143h.99621v5.9255h-.80068v-4.4403l-.02448-.0042-1.7927 4.4442h-.55687l-1.84552-4.5906-.02413.0042v4.5867h-.80103v-5.9255h1.05288z"/><path d="m12.175 79.7336h-2.43073v2.1201h2.84553v.6269h-3.64656v-5.9256h3.60146v.6308h-2.80078v1.917h2.43068v.6308zm-1.0204-4.8354h.935l.0081.0245-1.0935 1.058h-.6016z"/><path d="m17.6415 77.1854h-1.9511v5.2949h-.8007v-5.2949h-1.9267v-.6307h4.6785z"/><path d="m19.336 82.4806h-.8049v-5.9255h.8049z"/><path d="m24.0019 79.7336h-2.4307v2.1201h2.8455v.6269h-3.6466v-5.9255h3.6015v.6307h-2.8008v1.917h2.4307v.6308z"/><path d="m26.1311 79.9125v2.5681h-.801v-5.9214h2.0242c.6479 0 1.1425.1436 1.4839.4311.3417.2875.5121.7057.5121 1.2534 0 .304-.0794.5684-.2379.794-.1585.2251-.3897.4041-.6929.5368.3253.1061.5589.2777.7013.5152.142.2374.2134.5313.2134.8811v.5576c0 .1845.0203.3502.0608.4966.0406.1467.1109.2661.2113.3579v.0977h-.8252c-.1056-.0925-.1735-.2277-.2032-.407s-.0448-.3635-.0448-.5533v-.5414c0-.3201-.0934-.5779-.2805-.7733s-.4376-.2931-.752-.2931zm0-.6308h1.1421c.4526 0 .7786-.0861.9777-.2584.199-.1723.2987-.4346.2987-.7876 0-.3338-.0969-.5919-.2907-.7754-.1938-.1828-.4953-.2746-.9046-.2746h-1.2235v2.096z"/><path d="m33.7479 80.987c0-.269-.0962-.4938-.2886-.6759-.1924-.1818-.5314-.3362-1.0162-.4637-.6016-.1496-1.071-.3691-1.4086-.6595-.3372-.2903-.5061-.6552-.5061-1.0947 0-.4641.1815-.8507.5446-1.1603.3631-.3092.8346-.4637 1.4146-.4637.6233 0 1.12.1769 1.4897.5313.3698.3541.5492.767.5387 1.2391l-.0122.0245h-.7643c0-.3366-.1172-.6147-.3516-.8346-.2343-.2196-.5345-.3295-.9003-.3295-.374 0-.6608.091-.8598.2728-.1991.1817-.2988.4174-.2988.7078 0 .2577.1092.4731.3274.645.2183.1724.5723.3236 1.0631.4539.5964.1545 1.0501.3828 1.3617.6836.3117.3012.4673.6731.4673 1.1155 0 .4773-.1874.8615-.5628 1.1518-.3753.2903-.8654.4353-1.4695.4353-.5719 0-1.0766-.16-1.5142-.4801s-.6496-.7491-.6363-1.2864l.008-.0241h.7643c0 .3719.141.6587.4226.8608s.6002.3029.9553.3029c.3795 0 .6796-.0854.9004-.256.2214-.1709.3316-.4027.3316-.6958z"/><path d="m37.6854 82.4806v-5.9255h1.8616c.7724 0 1.3936.2381 1.8641.714.4701.476.7052 1.0913.7052 1.846v.81c0 .7568-.2351 1.3722-.7052 1.8457-.4701.4738-1.0917.7102-1.8641.7102h-1.8616zm.8007-5.2952v4.668h1.0609c.5475 0 .9791-.1804 1.295-.5411.3155-.3607.4736-.8237.4736-1.3879v-.8181c0-.5589-.1578-1.0187-.4736-1.3794-.3159-.3608-.7475-.5415-1.295-.5415z"/><path d="m47.656 76.555v3.9354c0 .651-.2113 1.1599-.6342 1.5258-.4226.3664-.9675.5495-1.6339.5495-.6422 0-1.168-.1835-1.5772-.5516-.4093-.3673-.6136-.8755-.6136-1.5241v-3.9353h.8007v3.9353c0 .4532.1294.8079.3883 1.0643.2588.256.5929.3845 1.0022.3845.4334 0 .7866-.1281 1.0588-.3845.2721-.2564.4085-.6111.4085-1.0643v-3.9353h.8004z"/><path d="m53.8616 81.3694h.0242l1.8903-4.8143h.9958v5.9255h-.8007v-4.4403l-.0244-.0042-1.7927 4.4442h-.5569l-1.8455-4.5906-.0242.0042v4.5867h-.801v-5.9255h1.0529z"/><path d="m62.4908 76.555v3.9354c0 .651-.2113 1.1599-.6342 1.5258-.4225.3664-.9675.5495-1.6339.5495-.6422 0-1.1679-.1835-1.5772-.5516-.4092-.3673-.6135-.8755-.6135-1.5241v-3.9353h.8007v3.9353c0 .4532.1294.8079.3882 1.0643.2589.256.5929.3845 1.0022.3845.4334 0 .7867-.1281 1.0588-.3845.2722-.2564.4086-.6111.4086-1.0643v-3.9353h.8003z"/><path d="m64.527 81.8537h2.8861v.6269h-3.6871v-5.9255h.801z"/><path d="m71.2902 77.1854h-1.9512v5.2949h-.8006v-5.2949h-1.9267v-.6307h4.6785z"/><path d="m72.9843 82.4806h-.8049v-5.9255h.8049z"/><path d="m77.3536 81.3694h.0241l1.8903-4.8143h.9959v5.9255h-.8007v-4.4403l-.0245-.0042-1.7927 4.4442h-.5569l-1.8455-4.5906-.0241.0042v4.5867h-.801v-5.9255h1.0528z"/><path d="m84.8486 79.7336h-2.4307v2.1201h2.8455v.6269h-3.6462v-5.9256h3.6015v.6308h-2.8008v1.917h2.4307zm-1.0204-4.8354h.935l.0081.0245-1.0935 1.058h-.6016z"/><path d="m86.177 82.4806v-5.9255h1.8616c.7723 0 1.3936.2381 1.864.714.4702.476.7052 1.0913.7052 1.846v.81c0 .7568-.235 1.3722-.7052 1.8457-.4701.4738-1.0917.7102-1.864.7102h-1.8616zm.801-5.2952v4.668h1.0609c.5475 0 .9791-.1804 1.295-.5411.3155-.3607.4736-.8237.4736-1.3879v-.8181c0-.5589-.1578-1.0187-.4736-1.3794-.3159-.3608-.7475-.5415-1.295-.5415z"/><path d="m92.6682 82.4806h-.8049v-5.9255h.8049z"/><path d="m97.2323 80.9544h-2.2278l-.5286 1.5259h-.8171l2.1341-5.9256h.687l2.0893 5.9256h-.8171zm-1.9959-.6717h1.7682l-.8619-2.5439h-.0245z"/><path d="m104.674 79.7336h-2.431v2.1201h2.846v.6269h-3.647v-5.9255h3.602v.6307h-2.801v1.917h2.431z"/><path d="m110.14 77.1854h-1.951v5.2949h-.8v-5.2949h-1.927v-.6307h4.678z"/><path d="m112.984 82.4806v-5.9255h1.862c.772 0 1.393.2381 1.864.714.47.476.705 1.0913.705 1.846v.81c0 .7568-.235 1.3722-.705 1.8457-.47.4738-1.092.7102-1.864.7102h-1.862zm.801-5.2952v4.668h1.061c.548 0 .979-.1804 1.295-.5411s.474-.8237.474-1.3879v-.8181c0-.5589-.158-1.0187-.474-1.3794-.316-.3608-.747-.5415-1.295-.5415z"/><path d="m121.821 79.7336h-2.431v2.1201h2.846v.6269h-3.647v-5.9255h3.602v.6307h-2.801v1.917h2.431z"/><path d="m125.986 81.8537h2.886v.6269h-3.687v-5.9255h.801z"/><path d="m129.932 77.3402-.41 1.4082h-.394l.004-1.3959v-.7974h.801v.7851z"/><path d="m132.118 82.4806h-.805v-5.9255h.805z"/><path d="m138.028 82.4806h-.801l-2.849-4.5258-.024.0081v4.5174h-.802v-5.9256h.802l2.849 4.5212.024-.0077v-4.5135h.801z"/><path d="m143.401 77.1854h-1.951v5.2949h-.801v-5.2949h-1.926v-.6307h4.678z"/><path d="m147.441 79.7336h-2.431v2.1201h2.846v.6269h-3.646v-5.9255h3.601v.6307h-2.801v1.917h2.431z"/><path d="m149.571 79.9125v2.5681h-.801v-5.9214h2.024c.648 0 1.142.1436 1.484.4311.341.2875.512.7057.512 1.2534 0 .304-.08.5684-.238.794-.158.2251-.39.4041-.693.5368.325.1061.559.2777.701.5152.142.2374.214.5313.214.8811v.5576c0 .1845.02.3502.061.4966.04.1467.11.2661.211.3579v.0977h-.825c-.106-.0925-.174-.2277-.204-.407-.029-.1793-.044-.3635-.044-.5533v-.5414c0-.3201-.094-.5779-.281-.7733s-.437-.2931-.752-.2931zm0-.6308h1.142c.452 0 .778-.0861.977-.2584s.299-.4346.299-.7876c0-.3338-.097-.5919-.291-.7754-.193-.1828-.495-.2746-.904-.2746h-1.224v2.096z"/><path d="m158.509 82.4806h-.801l-2.85-4.5258-.024.0081v4.5174h-.801v-5.9256h.801l2.849 4.5212.025-.0077v-4.5135h.801z"/><path d="m163.093 79.7336h-2.431v2.1201h2.846v.6269h-3.646v-5.9255h3.601v.6307h-2.801v1.917h2.431z"/><path d="m168.56 77.1854h-1.952v5.2949h-.8v-5.2949h-1.927v-.6307h4.679z"/><path d="m9.0639 69.0854.01504.0452c.01994 1.0258-.34 1.8838-1.07947 2.5744-.73981.6906-1.71679 1.0359-2.93127 1.0359-1.23442 0-2.24043-.4377-3.01733-1.3136-.77724-.8755-1.16586-1.9864-1.16586-3.3326v-1.944c0-1.3463.38827-2.4585 1.16586-3.3365.77725-.8783 1.78291-1.3175 3.01733-1.3175s2.21665.3292 2.94632.9872c.72967.6581 1.08436 1.5301 1.06442 2.6158l-.01504.0448h-1.41702c0-.7656-.22492-1.3711-.67475-1.8165-.44984-.4455-1.08471-.6682-1.90428-.6682-.82447 0-1.48173.3327-1.97179.9984-.49006.6658-.73457 1.4912-.73457 2.477v1.9591c0 .996.24486 1.8267.73457 2.4921s1.14697.9985 1.97179.9985c.81957 0 1.45444-.2214 1.90428-.6644.44983-.4426.67475-1.0545.67475-1.8351z"/><path d="m20.4193 72.5833h-1.4769v-4.8262h-5.3004v4.8262h-1.4768v-10.9286h1.4768v4.939h5.3004v-4.939h1.4769z"/><path d="m29.9078 69.7687h-4.1084l-.9745 2.8146h-1.5069l3.9359-10.9286h1.2669l3.8534 10.9286h-1.5069zm-3.6809-1.2387h3.2611l-1.5891-4.6914h-.0451z"/><path d="m40.5587 70.5343h.0448l3.486-8.8796h1.8368v10.9286h-1.4768v-8.1889l-.0452-.0074-3.3062 8.1963h-1.0274l-3.4035-8.4667-.0447.0074v8.4593h-1.4769v-10.9286h1.9417z"/><path d="m49.6498 72.5833v-10.9286h3.5612c1.1397 0 2.0316.2465 2.6763.7393.6447.4927.9672 1.2324.9672 2.2178 0 .4704-.1452.892-.4348 1.265s-.6748.6567-1.1543.8521c.7146.1001 1.2806.4101 1.6979.9305s.6261 1.1333.6261 1.8389c0 1.0009-.3249 1.7651-.9745 2.2929-.6499.5281-1.5297.7918-2.6389.7918h-4.3262zm1.4768-6.2824h2.3916c.5498 0 .9972-.1513 1.3418-.4542.3449-.3026.5173-.7242.5173-1.2646 0-.5905-.1861-1.0321-.5586-1.3249-.3722-.2927-.9084-.4391-1.608-.4391h-2.0841zm0 1.1557v3.9707h2.8491c.6747 0 1.198-.1663 1.5706-.499.3721-.3328.5586-.8041.5586-1.4149 0-.6055-.19-1.0934-.5698-1.4635-.3799-.3702-.8924-.5681-1.537-.5929h-.0976-2.7739z"/><path d="m66.5378 67.5168h-4.4833v3.9105h5.2479v1.156h-6.7248v-10.9287h6.6423v1.1634h-5.1654v3.5354h4.4833zm-1.8819-8.9171h1.7245l.015.0452-2.0169 1.9514h-1.1095z"/><path d="m71.6931 67.8471v4.7362h-1.4768v-10.9213h3.7334c1.1945 0 2.1064.2654 2.7364.7957.6296.5305.9444 1.301.9444 2.3117 0 .5607-.1462 1.0485-.4386 1.4639-.2921.4153-.7185.7456-1.2781.9907.5999.1951 1.0308.5117 1.2931.9495.2624.4377.3936.9795.3936 1.6249v1.0286c0 .3404.0374.6455.1123.9158.0748.2704.2049.4903.39.6605v.18h-1.522c-.1948-.1698-.32-.4202-.375-.7505-.0549-.3302-.0822-.6706-.0822-1.0208v-.9985c0-.5905-.1724-1.0657-.5173-1.4261-.3449-.3603-.8073-.5403-1.3869-.5403zm0-1.1634h2.1065c.8346 0 1.4356-.1587 1.8032-.4767.3673-.3176.5509-.802.5509-1.4523 0-.6153-.1787-1.092-.5359-1.4299-.3575-.338-.9136-.5068-1.6681-.5068h-2.2566z"/><path d="m84.3529 67.209 2.8488-5.5543h1.687l-3.8309 7.0854v3.8432h-1.4695v-3.9556l-3.7708-6.973h1.6867z"/></g><path d="m101.071 71.5583c2.907 0 5.263-2.3589 5.263-5.2686 0-2.9098-2.356-5.2686-5.263-5.2686-2.906 0-5.262 2.3588-5.262 5.2686 0 2.9097 2.356 5.2686 5.262 5.2686z" fill="#59c911"/><path d="m116.817 71.2952c2.906 0 5.262-2.3588 5.262-5.2686 0-2.9097-2.356-5.2685-5.262-5.2685s-5.262 2.3588-5.262 5.2685c0 2.9098 2.356 5.2686 5.262 5.2686z" fill="#2993ce"/><path d="m132.563 71.2952c2.906 0 5.262-2.3588 5.262-5.2686 0-2.9097-2.356-5.2685-5.262-5.2685-2.907 0-5.263 2.3588-5.263 5.2685 0 2.9098 2.356 5.2686 5.263 5.2686z" fill="#364fcc"/><path d="m148.309 71.2952c2.906 0 5.262-2.3588 5.262-5.2686 0-2.9097-2.356-5.2685-5.262-5.2685-2.907 0-5.263 2.3588-5.263 5.2685 0 2.9098 2.356 5.2686 5.263 5.2686z" fill="#d9002e"/><path d="m164.054 71.2952c2.906 0 5.262-2.3588 5.262-5.2686 0-2.9097-2.356-5.2685-5.262-5.2685s-5.262 2.3588-5.262 5.2685c0 2.9098 2.356 5.2686 5.262 5.2686z" fill="#f60"/></g></svg>