<svg fill="none" height="869" viewBox="0 0 1104 869" width="1104" xmlns="http://www.w3.org/2000/svg"><path d="m-166.256 815.621-.363-.203 464.446-780.2365.196.1084c10.226-20.3521 31.572-34.511824 56.495-34.511824 12.132.013865 24.003 3.428304 34.182 9.832424 10.179 6.404 18.233 15.5249 23.192 26.2648l309.087 519.2357 75.675-127.126.098.054c2.701-5.444 6.929-10.04 12.199-13.261s11.37-4.936 17.599-4.95c13.467 0 25.02 7.832 30.231 18.997l220.619 370.647h.99v1.653l21.36 35.88c2.57 3.229 3.97 7.193 3.98 11.274 0 10.352-8.65 18.74-19.31 18.74-2.12 0-4.12-.407-6.03-1.03v1.233h-1215.393v-.678c-9.16-.682-17.718-4.689-23.967-11.222-6.248-6.532-9.727-15.11-9.742-24.021.032-5.833 1.563-11.566 4.456-16.68z" fill="#003b49"/></svg>