<svg fill="none" height="143" viewBox="0 0 143 143" width="143" xmlns="http://www.w3.org/2000/svg"><path d="m57.6795 93.4433s-50.47184-36.4221-44.8734-78.1066c.0555-.7078.3361-1.3793.8008-1.9162.516-.4785 1.1788-.7683 1.8805-.8222 40.7335-5.72719 76.319 45.9173 76.319 45.9173 30.8736-3.6966 28.6286 2.4596 42.7146 36.2934 2.695 6.449-1.674 8.673-6.464 6.857l-15.358-5.7988-18.5188 18.9328 5.67 15.723c1.7728 4.905-.3933 9.374-6.7067 6.621-33.0616-14.414-39.0819-12.112-35.464-43.7007zm-7.2144-42.2994c2.0571-2.1256 3.2071-4.9678 3.2071-7.9258s-1.15-5.8001-3.2071-7.9257c-1.0057-1.0366-2.2093-1.8607-3.5394-2.4234-1.3302-.5628-2.7597-.8527-4.204-.8527s-2.8739.2899-4.204.8527c-1.3301.5627-2.5337 1.3868-3.5395 2.4234-2.057 2.1256-3.2071 4.9677-3.2071 7.9257s1.1501 5.8002 3.2071 7.9258c1.0058 1.0366 2.2094 1.8606 3.5395 2.4234 1.3301.5627 2.7597.8527 4.204.8527s2.8738-.29 4.204-.8527c1.3301-.5628 2.5337-1.3868 3.5394-2.4234z" fill="#003b49"/></svg>