<svg fill="none" height="180" viewBox="0 0 180 180" width="180" xmlns="http://www.w3.org/2000/svg" xmlns:xlink="http://www.w3.org/1999/xlink"><clipPath id="a"><path d="m0 0h136v136h-136z" transform="matrix(.40409456 -.91471722 .91471722 .40409456 .320312 124.722)"/></clipPath><g clip-path="url(#a)"><path d="m129.6 35.8822 13.119 33.8776c.806 2.0911.749 4.4162-.156 6.4659-.906 2.0497-2.587 3.657-4.675 4.4698l-28.161 10.8852 1.346 3.4669c7.766-.0792 15.446 1.6295 22.445 4.9944 7 3.364 13.132 8.294 17.921 14.408 1.582 2.006.571 5.013-1.812 5.939l-37.664 14.584 2.415 6.235c.709.11 1.387.146 2.067.446 1.538.68 2.84 1.8 3.741 3.219.902 1.42 1.362 3.074 1.323 4.755s-.576 3.313-1.543 4.689c-.966 1.376-2.319 2.434-3.887 3.041s-3.28.736-4.921.37c-1.641-.367-3.137-1.211-4.298-2.428-1.161-1.216-1.935-2.749-2.225-4.405-.289-1.657-.081-3.362.598-4.9.301-.679.778-1.163 1.229-1.722l-2.415-6.235-37.6635 14.584c-2.3853.92-5.1344-.612-5.338-3.171-.5767-7.745.6364-15.519 3.5453-22.72 2.909-7.201 7.4359-13.637 13.2303-18.808l-1.329-3.433-28.1594 10.882c-2.0957.803-4.4238.744-6.4767-.162-2.0528-.907-3.6637-2.589-4.4813-4.679l-13.1177-33.8815c-.4024-1.0347-.5958-2.1389-.569-3.2487.0269-1.1099.2735-2.2034.7255-3.2174.9059-2.0582 2.5904-3.6736 4.6847-4.4924l28.1346-10.8969-6.5064-16.7564c-.8534-2.2071-.7957-4.6627.1605-6.8272s2.7327-3.8608 4.939-4.7161l16.6421-6.444c2.2071-.8515 4.6618-.7928 6.8257.1632 2.1639.9559 3.8603 2.7311 4.7171 4.9361l6.5063 16.7565 28.1599-10.8813c1.036-.3995 2.14-.5908 3.25-.5628s2.204.2746 3.219.7258c1.014.4512 1.93 1.0981 2.694 1.9037.765.8055 1.363 1.7539 1.76 2.7909zm-57.7426 56.6855-10.0127-25.8614-24.1382 9.3495 10.0104 25.8562zm47.4116-48.0931-24.14 9.344 10.013 25.8614 24.138-9.3496z" fill="#003b49"/></g></svg>