<svg fill="none" height="78" viewBox="0 0 78 78" width="78" xmlns="http://www.w3.org/2000/svg"><g fill="#003b49"><path d="m29.25 39c0 1.9284.5718 3.8134 1.6432 5.4168 1.0713 1.6034 2.5941 2.8531 4.3756 3.591 1.7816.738 3.742.9311 5.6333.5549s3.6286-1.3048 4.9922-2.6684 2.2922-3.1009 2.6684-4.9922.1831-3.8517-.5549-5.6333c-.7379-1.7815-1.9876-3.3043-3.591-4.3756-1.6034-1.0714-3.4884-1.6432-5.4168-1.6432-2.5859 0-5.0658 1.0272-6.8943 2.8557s-2.8557 4.3084-2.8557 6.8943zm14.625 0c0 .9642-.2859 1.9067-.8216 2.7084s-1.297 1.4265-2.1878 1.7955-1.871.4655-2.8167.2774c-.9456-.1881-1.8143-.6524-2.496-1.3342-.6818-.6817-1.1461-1.5504-1.3342-2.496-.1881-.9457-.0916-1.9259.2774-2.8167s.9938-1.6521 1.7955-2.1878 1.7442-.8216 2.7084-.8216c1.2929 0 2.5329.5136 3.4471 1.4279.9143.9142 1.4279 2.1542 1.4279 3.4471z"/><path d="m39 66.2269-13.65-13.6256-3.4125 3.4612 17.0625 17.0625 17.0625-17.0625-3.4369-3.4369z"/><path d="m39 11.7731 13.6012 13.5769 3.4613-3.4125-17.0625-17.0625-17.0625 17.0625 3.4369 3.4369z"/></g></svg>