<svg fill="none" height="18" viewBox="0 0 22 18" width="22" xmlns="http://www.w3.org/2000/svg"><path d="m22 2.11613c-.8181.35887-1.6899.59675-2.5987.71225.935-.55825 1.6486-1.43551 1.9841-2.49288-.8718.51975-1.8343.88688-2.86 1.09175-.8278-.881375-2.0075-1.42725-3.2945-1.42725-2.497 0-4.5073 2.02675-4.5073 4.51137 0 .35751.0303.70126.1045 1.02851-3.7496-.18288-7.06748-1.98-9.29635-4.71763-.38913.67513-.617375 1.44787-.617375 2.27975 0 1.562.804375 2.94662 2.003375 3.74825-.72463-.01375-1.4355-.22412-2.03775-.5555v.0495c0 2.19175 1.56338 4.01225 3.6135 4.43165-.36712.1004-.76725.1485-1.1825.1485-.28875 0-.58025-.0165-.85388-.077.58438 1.7861 2.24263 3.0992 4.21438 3.1419-1.5345 1.2003-3.48287 1.9236-5.59212 1.9236-.36988 0-.72463-.0165-1.07938-.0619 1.99787 1.2884 4.36563 2.024 6.919 2.024 8.2995 0 12.837-6.875 12.837-12.83425 0-.19938-.0069-.39188-.0165-.583.8951-.63525 1.6472-1.42862 2.2605-2.34162z" fill="#e9fbff"/></svg>